<mxfile host="Electron" modified="2023-09-16T16:49:20.428Z" agent="Mozilla/5.0 (Windows NT 10.0; Win64; x64) AppleWebKit/537.36 (KHTML, like Gecko) draw.io/21.6.8 Chrome/114.0.5735.289 Electron/25.5.0 Safari/537.36" etag="wpiPup7ZBgvF4XkMRemz" version="21.6.8" type="device">
  <diagram name="Page-1" id="clwdBYOCJ8FTP1lFSnZC">
    <mxGraphModel dx="593" dy="1055" grid="1" gridSize="10" guides="1" tooltips="1" connect="1" arrows="1" fold="1" page="1" pageScale="1" pageWidth="850" pageHeight="1100" math="0" shadow="0">
      <root>
        <mxCell id="0" />
        <mxCell id="1" parent="0" />
        <mxCell id="1s7Zbs3c-VEDcTHF_DOc-3" style="edgeStyle=orthogonalEdgeStyle;rounded=0;orthogonalLoop=1;jettySize=auto;html=1;startArrow=classic;startFill=1;" edge="1" parent="1" source="1s7Zbs3c-VEDcTHF_DOc-1" target="1s7Zbs3c-VEDcTHF_DOc-2">
          <mxGeometry relative="1" as="geometry" />
        </mxCell>
        <mxCell id="1s7Zbs3c-VEDcTHF_DOc-5" style="edgeStyle=orthogonalEdgeStyle;rounded=0;orthogonalLoop=1;jettySize=auto;html=1;entryX=0.5;entryY=0;entryDx=0;entryDy=0;" edge="1" parent="1" source="1s7Zbs3c-VEDcTHF_DOc-1" target="1s7Zbs3c-VEDcTHF_DOc-4">
          <mxGeometry relative="1" as="geometry" />
        </mxCell>
        <mxCell id="1s7Zbs3c-VEDcTHF_DOc-31" value="Login" style="edgeLabel;html=1;align=center;verticalAlign=middle;resizable=0;points=[];" vertex="1" connectable="0" parent="1s7Zbs3c-VEDcTHF_DOc-5">
          <mxGeometry x="-0.25" y="-1" relative="1" as="geometry">
            <mxPoint x="-19" y="5" as="offset" />
          </mxGeometry>
        </mxCell>
        <mxCell id="1s7Zbs3c-VEDcTHF_DOc-1" value="Login Page" style="rounded=1;whiteSpace=wrap;html=1;" vertex="1" parent="1">
          <mxGeometry x="340" y="50" width="120" height="60" as="geometry" />
        </mxCell>
        <mxCell id="1s7Zbs3c-VEDcTHF_DOc-2" value="Reset Password" style="rounded=1;whiteSpace=wrap;html=1;" vertex="1" parent="1">
          <mxGeometry x="780" y="50" width="120" height="60" as="geometry" />
        </mxCell>
        <mxCell id="1s7Zbs3c-VEDcTHF_DOc-11" style="edgeStyle=orthogonalEdgeStyle;rounded=0;orthogonalLoop=1;jettySize=auto;html=1;entryX=0.5;entryY=0;entryDx=0;entryDy=0;startArrow=classic;startFill=1;" edge="1" parent="1" source="1s7Zbs3c-VEDcTHF_DOc-4" target="1s7Zbs3c-VEDcTHF_DOc-6">
          <mxGeometry relative="1" as="geometry" />
        </mxCell>
        <mxCell id="1s7Zbs3c-VEDcTHF_DOc-12" style="edgeStyle=orthogonalEdgeStyle;rounded=0;orthogonalLoop=1;jettySize=auto;html=1;entryX=0.5;entryY=0;entryDx=0;entryDy=0;startArrow=classic;startFill=1;" edge="1" parent="1" source="1s7Zbs3c-VEDcTHF_DOc-4" target="1s7Zbs3c-VEDcTHF_DOc-7">
          <mxGeometry relative="1" as="geometry">
            <Array as="points">
              <mxPoint x="380" y="265" />
              <mxPoint x="290" y="265" />
            </Array>
          </mxGeometry>
        </mxCell>
        <mxCell id="1s7Zbs3c-VEDcTHF_DOc-13" style="edgeStyle=orthogonalEdgeStyle;rounded=0;orthogonalLoop=1;jettySize=auto;html=1;entryX=0.5;entryY=0;entryDx=0;entryDy=0;startArrow=classic;startFill=1;" edge="1" parent="1" source="1s7Zbs3c-VEDcTHF_DOc-4" target="1s7Zbs3c-VEDcTHF_DOc-8">
          <mxGeometry relative="1" as="geometry">
            <Array as="points">
              <mxPoint x="410" y="230" />
              <mxPoint x="610" y="230" />
            </Array>
          </mxGeometry>
        </mxCell>
        <mxCell id="1s7Zbs3c-VEDcTHF_DOc-14" style="edgeStyle=orthogonalEdgeStyle;rounded=0;orthogonalLoop=1;jettySize=auto;html=1;entryX=0.5;entryY=0;entryDx=0;entryDy=0;startArrow=classic;startFill=1;" edge="1" parent="1" source="1s7Zbs3c-VEDcTHF_DOc-4" target="1s7Zbs3c-VEDcTHF_DOc-9">
          <mxGeometry relative="1" as="geometry" />
        </mxCell>
        <mxCell id="1s7Zbs3c-VEDcTHF_DOc-30" style="edgeStyle=orthogonalEdgeStyle;rounded=0;orthogonalLoop=1;jettySize=auto;html=1;entryX=0.5;entryY=0;entryDx=0;entryDy=0;startArrow=classic;startFill=1;" edge="1" parent="1" source="1s7Zbs3c-VEDcTHF_DOc-4" target="1s7Zbs3c-VEDcTHF_DOc-29">
          <mxGeometry relative="1" as="geometry">
            <Array as="points">
              <mxPoint x="750" y="200" />
            </Array>
          </mxGeometry>
        </mxCell>
        <mxCell id="1s7Zbs3c-VEDcTHF_DOc-32" style="edgeStyle=orthogonalEdgeStyle;rounded=0;orthogonalLoop=1;jettySize=auto;html=1;exitX=0.75;exitY=0;exitDx=0;exitDy=0;entryX=0.75;entryY=1;entryDx=0;entryDy=0;" edge="1" parent="1" source="1s7Zbs3c-VEDcTHF_DOc-4" target="1s7Zbs3c-VEDcTHF_DOc-1">
          <mxGeometry relative="1" as="geometry" />
        </mxCell>
        <mxCell id="1s7Zbs3c-VEDcTHF_DOc-33" value="Logout" style="edgeLabel;html=1;align=center;verticalAlign=middle;resizable=0;points=[];" vertex="1" connectable="0" parent="1s7Zbs3c-VEDcTHF_DOc-32">
          <mxGeometry x="-0.1346" y="-1" relative="1" as="geometry">
            <mxPoint x="19" y="-3" as="offset" />
          </mxGeometry>
        </mxCell>
        <mxCell id="1s7Zbs3c-VEDcTHF_DOc-4" value="Dashboard" style="rounded=1;whiteSpace=wrap;html=1;" vertex="1" parent="1">
          <mxGeometry x="340" y="150" width="120" height="60" as="geometry" />
        </mxCell>
        <mxCell id="1s7Zbs3c-VEDcTHF_DOc-20" style="edgeStyle=orthogonalEdgeStyle;rounded=0;orthogonalLoop=1;jettySize=auto;html=1;entryX=0.5;entryY=0;entryDx=0;entryDy=0;startArrow=classic;startFill=1;" edge="1" parent="1" source="1s7Zbs3c-VEDcTHF_DOc-6" target="1s7Zbs3c-VEDcTHF_DOc-18">
          <mxGeometry relative="1" as="geometry" />
        </mxCell>
        <mxCell id="1s7Zbs3c-VEDcTHF_DOc-21" style="edgeStyle=orthogonalEdgeStyle;rounded=0;orthogonalLoop=1;jettySize=auto;html=1;entryX=0.5;entryY=0;entryDx=0;entryDy=0;startArrow=classic;startFill=1;" edge="1" parent="1" source="1s7Zbs3c-VEDcTHF_DOc-6" target="1s7Zbs3c-VEDcTHF_DOc-19">
          <mxGeometry relative="1" as="geometry" />
        </mxCell>
        <mxCell id="1s7Zbs3c-VEDcTHF_DOc-6" value="Endpoints" style="rounded=1;whiteSpace=wrap;html=1;" vertex="1" parent="1">
          <mxGeometry x="80" y="320" width="120" height="60" as="geometry" />
        </mxCell>
        <mxCell id="1s7Zbs3c-VEDcTHF_DOc-24" style="edgeStyle=orthogonalEdgeStyle;rounded=0;orthogonalLoop=1;jettySize=auto;html=1;entryX=0.5;entryY=0;entryDx=0;entryDy=0;startArrow=classic;startFill=1;" edge="1" parent="1" source="1s7Zbs3c-VEDcTHF_DOc-7" target="1s7Zbs3c-VEDcTHF_DOc-22">
          <mxGeometry relative="1" as="geometry">
            <Array as="points">
              <mxPoint x="310" y="500" />
              <mxPoint x="270" y="500" />
            </Array>
          </mxGeometry>
        </mxCell>
        <mxCell id="1s7Zbs3c-VEDcTHF_DOc-25" style="edgeStyle=orthogonalEdgeStyle;rounded=0;orthogonalLoop=1;jettySize=auto;html=1;entryX=0.5;entryY=0;entryDx=0;entryDy=0;startArrow=classic;startFill=1;" edge="1" parent="1" source="1s7Zbs3c-VEDcTHF_DOc-7" target="1s7Zbs3c-VEDcTHF_DOc-23">
          <mxGeometry relative="1" as="geometry">
            <Array as="points">
              <mxPoint x="330" y="450" />
              <mxPoint x="410" y="450" />
            </Array>
          </mxGeometry>
        </mxCell>
        <mxCell id="1s7Zbs3c-VEDcTHF_DOc-7" value="Scan Schedule" style="rounded=1;whiteSpace=wrap;html=1;" vertex="1" parent="1">
          <mxGeometry x="230" y="320" width="120" height="60" as="geometry" />
        </mxCell>
        <mxCell id="1s7Zbs3c-VEDcTHF_DOc-38" style="edgeStyle=orthogonalEdgeStyle;rounded=0;orthogonalLoop=1;jettySize=auto;html=1;entryX=0.5;entryY=0;entryDx=0;entryDy=0;startArrow=classic;startFill=1;" edge="1" parent="1" source="1s7Zbs3c-VEDcTHF_DOc-8" target="1s7Zbs3c-VEDcTHF_DOc-36">
          <mxGeometry relative="1" as="geometry" />
        </mxCell>
        <mxCell id="1s7Zbs3c-VEDcTHF_DOc-39" style="edgeStyle=orthogonalEdgeStyle;rounded=0;orthogonalLoop=1;jettySize=auto;html=1;startArrow=classic;startFill=1;" edge="1" parent="1" source="1s7Zbs3c-VEDcTHF_DOc-8" target="1s7Zbs3c-VEDcTHF_DOc-37">
          <mxGeometry relative="1" as="geometry" />
        </mxCell>
        <mxCell id="1s7Zbs3c-VEDcTHF_DOc-8" value="Users" style="rounded=1;whiteSpace=wrap;html=1;" vertex="1" parent="1">
          <mxGeometry x="550" y="400" width="120" height="60" as="geometry" />
        </mxCell>
        <mxCell id="1s7Zbs3c-VEDcTHF_DOc-15" style="edgeStyle=orthogonalEdgeStyle;rounded=0;orthogonalLoop=1;jettySize=auto;html=1;entryX=0.5;entryY=0;entryDx=0;entryDy=0;startArrow=classic;startFill=1;" edge="1" parent="1" source="1s7Zbs3c-VEDcTHF_DOc-9" target="1s7Zbs3c-VEDcTHF_DOc-10">
          <mxGeometry relative="1" as="geometry" />
        </mxCell>
        <mxCell id="1s7Zbs3c-VEDcTHF_DOc-9" value="Reports" style="rounded=1;whiteSpace=wrap;html=1;" vertex="1" parent="1">
          <mxGeometry x="790" y="200" width="120" height="60" as="geometry" />
        </mxCell>
        <mxCell id="1s7Zbs3c-VEDcTHF_DOc-10" value="Report Details" style="rounded=1;whiteSpace=wrap;html=1;" vertex="1" parent="1">
          <mxGeometry x="790" y="310" width="120" height="60" as="geometry" />
        </mxCell>
        <mxCell id="1s7Zbs3c-VEDcTHF_DOc-18" value="New Endpoint" style="rounded=1;whiteSpace=wrap;html=1;" vertex="1" parent="1">
          <mxGeometry x="20" y="420" width="120" height="60" as="geometry" />
        </mxCell>
        <mxCell id="1s7Zbs3c-VEDcTHF_DOc-19" value="Remove Endpoint" style="rounded=1;whiteSpace=wrap;html=1;" vertex="1" parent="1">
          <mxGeometry x="150" y="420" width="120" height="60" as="geometry" />
        </mxCell>
        <mxCell id="1s7Zbs3c-VEDcTHF_DOc-22" value="New Schedule" style="rounded=1;whiteSpace=wrap;html=1;" vertex="1" parent="1">
          <mxGeometry x="210" y="520" width="120" height="60" as="geometry" />
        </mxCell>
        <mxCell id="1s7Zbs3c-VEDcTHF_DOc-23" value="Edit Schedule" style="rounded=1;whiteSpace=wrap;html=1;" vertex="1" parent="1">
          <mxGeometry x="350" y="520" width="120" height="60" as="geometry" />
        </mxCell>
        <mxCell id="1s7Zbs3c-VEDcTHF_DOc-29" value="Quarantine" style="rounded=1;whiteSpace=wrap;html=1;" vertex="1" parent="1">
          <mxGeometry x="690" y="400" width="120" height="60" as="geometry" />
        </mxCell>
        <mxCell id="1s7Zbs3c-VEDcTHF_DOc-36" value="New User" style="rounded=1;whiteSpace=wrap;html=1;" vertex="1" parent="1">
          <mxGeometry x="530" y="520" width="120" height="60" as="geometry" />
        </mxCell>
        <mxCell id="1s7Zbs3c-VEDcTHF_DOc-37" value="Edit User" style="rounded=1;whiteSpace=wrap;html=1;" vertex="1" parent="1">
          <mxGeometry x="670" y="520" width="120" height="60" as="geometry" />
        </mxCell>
        <mxCell id="1s7Zbs3c-VEDcTHF_DOc-42" value="Page Navigation DIagram of Server Module GUI" style="shape=note2;boundedLbl=1;whiteSpace=wrap;html=1;size=25;verticalAlign=top;align=center;" vertex="1" parent="1">
          <mxGeometry x="60" y="40" width="120" height="90" as="geometry" />
        </mxCell>
      </root>
    </mxGraphModel>
  </diagram>
</mxfile>
